<svg xmlns="http://www.w3.org/2000/svg" xmlns:xlink="http://www.w3.org/1999/xlink" width="1000" zoomAndPan="magnify" viewBox="0 0 750 374.999991" height="500" preserveAspectRatio="xMidYMid meet" version="1.0"><defs><g/><clipPath id="ddb8d6863f"><path d="M 90 159 L 295 159 L 295 281.15625 L 90 281.15625 Z M 90 159 " clip-rule="nonzero"/></clipPath><clipPath id="d4f77be380"><path d="M 89 145 L 295.40625 145 L 295.40625 167 L 89 167 Z M 89 145 " clip-rule="nonzero"/></clipPath><clipPath id="ae2747ffef"><path d="M 86.90625 98.90625 L 294 98.90625 L 294 146 L 86.90625 146 Z M 86.90625 98.90625 " clip-rule="nonzero"/></clipPath><clipPath id="f1d965df34"><path d="M 89 166 L 295.40625 166 L 295.40625 167 L 89 167 Z M 89 166 " clip-rule="nonzero"/></clipPath></defs><g fill="#000000" fill-opacity="1"><g transform="translate(320.900232, 259.607922)"><g><path d="M 73.15625 0 L 72.945312 -38.660156 L 54.1875 -7.191406 L 45.019531 -7.191406 L 26.363281 -37.621094 L 26.363281 0 L 7.292969 0 L 7.292969 -72.945312 L 24.28125 -72.945312 L 49.917969 -30.847656 L 74.925781 -72.945312 L 91.914062 -72.945312 L 92.121094 0 Z M 73.15625 0 "/></g></g></g><g fill="#000000" fill-opacity="1"><g transform="translate(410.103486, 259.607922)"><g><path d="M 34.703125 0.9375 C 28.65625 0.9375 23.203125 -0.3125 18.339844 -2.8125 C 13.476562 -5.316406 9.675781 -8.789062 6.929688 -13.234375 C 4.1875 -17.679688 2.8125 -22.71875 2.8125 -28.34375 C 2.8125 -33.902344 4.1875 -38.90625 6.929688 -43.351562 C 9.675781 -47.796875 13.460938 -51.253906 18.289062 -53.71875 C 23.117188 -56.1875 28.589844 -57.417969 34.703125 -57.417969 C 40.816406 -57.417969 46.304688 -56.1875 51.167969 -53.71875 C 56.03125 -51.253906 59.816406 -47.816406 62.527344 -43.402344 C 65.234375 -38.992188 66.589844 -33.972656 66.589844 -28.34375 C 66.589844 -22.71875 65.234375 -17.679688 62.527344 -13.234375 C 59.816406 -8.789062 56.03125 -5.316406 51.167969 -2.8125 C 46.304688 -0.3125 40.816406 0.9375 34.703125 0.9375 Z M 34.703125 -14.796875 C 38.175781 -14.796875 41.023438 -15.996094 43.246094 -18.394531 C 45.46875 -20.789062 46.582031 -24.105469 46.582031 -28.34375 C 46.582031 -32.511719 45.46875 -35.777344 43.246094 -38.140625 C 41.023438 -40.503906 38.175781 -41.683594 34.703125 -41.683594 C 31.226562 -41.683594 28.378906 -40.503906 26.15625 -38.140625 C 23.933594 -35.777344 22.820312 -32.511719 22.820312 -28.34375 C 22.820312 -24.105469 23.933594 -20.789062 26.15625 -18.394531 C 28.378906 -15.996094 31.226562 -14.796875 34.703125 -14.796875 Z M 34.703125 -14.796875 "/></g></g></g><g fill="#000000" fill-opacity="1"><g transform="translate(469.294407, 259.607922)"><g><path d="M 65.859375 -56.480469 L 42.515625 0 L 22.09375 0 L -1.144531 -56.480469 L 19.175781 -56.480469 L 32.722656 -21.988281 L 47 -56.480469 Z M 65.859375 -56.480469 "/></g></g></g><g fill="#000000" fill-opacity="1"><g transform="translate(523.691732, 259.607922)"><g><path d="M 6.355469 -56.480469 L 26.15625 -56.480469 L 26.15625 0 L 6.355469 0 Z M 16.257812 -62.734375 C 12.644531 -62.734375 9.726562 -63.742188 7.503906 -65.757812 C 5.28125 -67.769531 4.167969 -70.273438 4.167969 -73.257812 C 4.167969 -76.246094 5.28125 -78.746094 7.503906 -80.761719 C 9.726562 -82.777344 12.644531 -83.785156 16.257812 -83.785156 C 19.871094 -83.785156 22.789062 -82.828125 25.011719 -80.917969 C 27.234375 -79.007812 28.34375 -76.558594 28.34375 -73.570312 C 28.34375 -70.445312 27.234375 -67.859375 25.011719 -65.808594 C 22.789062 -63.757812 19.871094 -62.734375 16.257812 -62.734375 Z M 16.257812 -62.734375 "/></g></g></g><g fill="#000000" fill-opacity="1"><g transform="translate(546.096764, 259.607922)"><g><path d="M 64.089844 -28.136719 C 64.089844 -27.996094 63.984375 -26.363281 63.777344 -23.238281 L 22.71875 -23.238281 C 23.550781 -20.320312 25.167969 -18.082031 27.5625 -16.515625 C 29.960938 -14.953125 32.964844 -14.171875 36.578125 -14.171875 C 39.285156 -14.171875 41.632812 -14.554688 43.613281 -15.320312 C 45.589844 -16.082031 47.589844 -17.332031 49.605469 -19.070312 L 60.023438 -8.234375 C 54.535156 -2.117188 46.511719 0.9375 35.953125 0.9375 C 29.351562 0.9375 23.550781 -0.3125 18.550781 -2.8125 C 13.546875 -5.316406 9.675781 -8.789062 6.929688 -13.234375 C 4.1875 -17.679688 2.8125 -22.71875 2.8125 -28.34375 C 2.8125 -33.902344 4.152344 -38.886719 6.824219 -43.300781 C 9.5 -47.710938 13.199219 -51.167969 17.925781 -53.667969 C 22.648438 -56.167969 27.964844 -57.417969 33.867188 -57.417969 C 39.496094 -57.417969 44.601562 -56.257812 49.1875 -53.929688 C 53.773438 -51.601562 57.402344 -48.230469 60.078125 -43.820312 C 62.75 -39.410156 64.089844 -34.179688 64.089844 -28.136719 Z M 33.972656 -43.351562 C 30.914062 -43.351562 28.363281 -42.484375 26.3125 -40.746094 C 24.261719 -39.007812 22.960938 -36.648438 22.40625 -33.660156 L 45.539062 -33.660156 C 44.984375 -36.648438 43.679688 -39.007812 41.632812 -40.746094 C 39.582031 -42.484375 37.027344 -43.351562 33.972656 -43.351562 Z M 33.972656 -43.351562 "/></g></g></g><g fill="#000000" fill-opacity="1"><g transform="translate(602.786701, 259.607922)"><g><path d="M 26.886719 0.9375 C 22.160156 0.9375 17.507812 0.398438 12.921875 -0.675781 C 8.335938 -1.753906 4.65625 -3.160156 1.875 -4.898438 L 7.816406 -18.445312 C 10.386719 -16.847656 13.441406 -15.578125 16.984375 -14.640625 C 20.53125 -13.703125 24.039062 -13.234375 27.511719 -13.234375 C 30.707031 -13.234375 32.980469 -13.566406 34.335938 -14.226562 C 35.691406 -14.882812 36.371094 -15.839844 36.371094 -17.089844 C 36.371094 -18.339844 35.554688 -19.226562 33.921875 -19.746094 C 32.289062 -20.269531 29.699219 -20.773438 26.15625 -21.257812 C 21.640625 -21.816406 17.800781 -22.542969 14.640625 -23.445312 C 11.480469 -24.351562 8.753906 -26.019531 6.460938 -28.449219 C 4.167969 -30.878906 3.023438 -34.285156 3.023438 -38.660156 C 3.023438 -42.273438 4.097656 -45.488281 6.253906 -48.300781 C 8.40625 -51.113281 11.550781 -53.339844 15.683594 -54.96875 C 19.816406 -56.601562 24.765625 -57.417969 30.535156 -57.417969 C 34.632812 -57.417969 38.695312 -57.003906 42.726562 -56.167969 C 46.753906 -55.335938 50.125 -54.15625 52.835938 -52.625 L 46.894531 -39.183594 C 41.890625 -41.960938 36.472656 -43.351562 30.636719 -43.351562 C 27.511719 -43.351562 25.21875 -42.988281 23.761719 -42.257812 C 22.300781 -41.527344 21.570312 -40.574219 21.570312 -39.390625 C 21.570312 -38.070312 22.371094 -37.152344 23.96875 -36.628906 C 25.566406 -36.109375 28.207031 -35.570312 31.886719 -35.015625 C 36.542969 -34.320312 40.398438 -33.519531 43.457031 -32.617188 C 46.511719 -31.714844 49.167969 -30.066406 51.425781 -27.667969 C 53.683594 -25.269531 54.8125 -21.917969 54.8125 -17.613281 C 54.8125 -14.066406 53.738281 -10.890625 51.582031 -8.078125 C 49.429688 -5.261719 46.25 -3.058594 42.046875 -1.457031 C 37.84375 0.140625 32.792969 0.9375 26.886719 0.9375 Z M 26.886719 0.9375 "/></g></g></g><path fill="#000000" d="M 89.632812 128.796875 L 89.632812 159.441406 C 89.632812 159.738281 89.664062 160.027344 89.722656 160.320312 C 89.777344 160.609375 89.863281 160.890625 89.976562 161.164062 C 90.089844 161.433594 90.230469 161.695312 90.394531 161.941406 C 90.558594 162.1875 90.746094 162.414062 90.957031 162.621094 C 91.167969 162.832031 91.394531 163.015625 91.640625 163.179688 C 91.890625 163.34375 92.148438 163.484375 92.421875 163.597656 C 92.699219 163.710938 92.980469 163.796875 93.269531 163.851562 C 93.5625 163.910156 93.855469 163.941406 94.152344 163.941406 L 106.632812 163.941406 C 106.929688 163.941406 107.222656 163.910156 107.515625 163.851562 C 107.804688 163.796875 108.089844 163.710938 108.363281 163.597656 C 108.636719 163.484375 108.898438 163.34375 109.144531 163.179688 C 109.390625 163.015625 109.621094 162.832031 109.828125 162.621094 C 110.039062 162.414062 110.226562 162.1875 110.390625 161.941406 C 110.554688 161.695312 110.695312 161.433594 110.808594 161.164062 C 110.921875 160.890625 111.007812 160.609375 111.066406 160.320312 C 111.125 160.027344 111.152344 159.738281 111.152344 159.441406 L 111.152344 128.796875 C 111.152344 128.5 111.125 128.207031 111.066406 127.917969 C 111.007812 127.628906 110.921875 127.347656 110.808594 127.074219 C 110.695312 126.800781 110.554688 126.542969 110.390625 126.296875 C 110.226562 126.050781 110.039062 125.824219 109.828125 125.617188 C 109.621094 125.40625 109.390625 125.21875 109.144531 125.054688 C 108.898438 124.890625 108.636719 124.753906 108.363281 124.640625 C 108.089844 124.527344 107.804688 124.441406 107.515625 124.382812 C 107.222656 124.328125 106.929688 124.296875 106.632812 124.296875 L 94.152344 124.296875 C 93.855469 124.296875 93.5625 124.328125 93.269531 124.382812 C 92.980469 124.441406 92.699219 124.527344 92.421875 124.640625 C 92.148438 124.753906 91.890625 124.890625 91.640625 125.054688 C 91.394531 125.21875 91.167969 125.40625 90.957031 125.617188 C 90.746094 125.824219 90.558594 126.050781 90.394531 126.296875 C 90.230469 126.542969 90.089844 126.800781 89.976562 127.074219 C 89.863281 127.347656 89.777344 127.628906 89.722656 127.917969 C 89.664062 128.207031 89.632812 128.5 89.632812 128.796875 " fill-opacity="1" fill-rule="evenodd"/><g clip-path="url(#ddb8d6863f)"><path fill="#000000" d="M 94.242188 159.117188 L 290.453125 159.117188 C 290.96875 159.117188 291.464844 159.214844 291.941406 159.414062 C 292.417969 159.613281 292.839844 159.894531 293.207031 160.257812 C 293.570312 160.625 293.851562 161.046875 294.050781 161.523438 C 294.246094 162 294.347656 162.5 294.347656 163.015625 L 294.347656 277.257812 C 294.347656 277.777344 294.246094 278.273438 294.050781 278.75 C 293.851562 279.230469 293.570312 279.652344 293.207031 280.015625 C 292.839844 280.382812 292.417969 280.664062 291.941406 280.859375 C 291.464844 281.058594 290.96875 281.15625 290.453125 281.15625 L 94.242188 281.15625 C 93.726562 281.15625 93.230469 281.058594 92.753906 280.859375 C 92.273438 280.664062 91.855469 280.382812 91.488281 280.015625 C 91.125 279.652344 90.84375 279.230469 90.644531 278.75 C 90.449219 278.273438 90.347656 277.777344 90.347656 277.257812 L 90.347656 163.015625 C 90.347656 162.5 90.449219 162 90.644531 161.523438 C 90.84375 161.046875 91.125 160.625 91.488281 160.257812 C 91.855469 159.894531 92.273438 159.613281 92.753906 159.414062 C 93.230469 159.214844 93.726562 159.117188 94.242188 159.117188 " fill-opacity="1" fill-rule="evenodd"/></g><g clip-path="url(#d4f77be380)"><path fill="#000000" d="M 89.394531 145.378906 L 295.292969 145.378906 L 295.292969 166.800781 L 89.394531 166.800781 Z M 89.394531 145.378906 " fill-opacity="1" fill-rule="evenodd"/></g><path fill="#ffffff" d="M 111.234375 165.601562 L 130.933594 165.601562 L 141.300781 146.574219 L 121.601562 146.574219 Z M 111.234375 165.601562 " fill-opacity="1" fill-rule="evenodd"/><path fill="#ffffff" d="M 161.679688 165.601562 L 181.378906 165.601562 L 191.75 146.574219 L 172.046875 146.574219 Z M 161.679688 165.601562 " fill-opacity="1" fill-rule="evenodd"/><path fill="#ffffff" d="M 212.125 165.601562 L 231.824219 165.601562 L 242.195312 146.574219 L 222.492188 146.574219 Z M 212.125 165.601562 " fill-opacity="1" fill-rule="evenodd"/><path fill="#ffffff" d="M 262.570312 165.601562 L 282.269531 165.601562 L 292.640625 146.574219 L 272.941406 146.574219 Z M 262.570312 165.601562 " fill-opacity="1" fill-rule="evenodd"/><g clip-path="url(#ae2747ffef)"><path fill="#000000" d="M 291.316406 98.90625 L 86.992188 124.21875 L 89.648438 145.476562 L 293.972656 120.164062 Z M 291.316406 98.90625 " fill-opacity="1" fill-rule="evenodd"/></g><path fill="#ffffff" d="M 291.222656 119.296875 L 271.675781 121.71875 L 259.023438 104.113281 L 278.574219 101.691406 Z M 291.222656 119.296875 " fill-opacity="1" fill-rule="evenodd"/><path fill="#ffffff" d="M 241.164062 125.5 L 221.613281 127.921875 L 208.964844 110.3125 L 228.515625 107.890625 Z M 241.164062 125.5 " fill-opacity="1" fill-rule="evenodd"/><path fill="#ffffff" d="M 191.105469 131.699219 L 171.554688 134.121094 L 158.90625 116.515625 L 178.457031 114.09375 Z M 191.105469 131.699219 " fill-opacity="1" fill-rule="evenodd"/><path fill="#ffffff" d="M 141.042969 137.902344 L 121.496094 140.324219 L 108.847656 122.714844 L 128.394531 120.292969 Z M 141.042969 137.902344 " fill-opacity="1" fill-rule="evenodd"/><path stroke-linecap="butt" transform="matrix(0.298953, -0.0370329, 0.0372004, 0.297607, 60.718819, 86.930891)" fill-opacity="1" fill="#ffffff" fill-rule="evenodd" stroke-linejoin="miter" d="M 125.716048 168.079508 C 125.71605 169.024547 125.638848 169.959979 125.458709 170.882602 C 125.27857 171.805225 125.00997 172.703715 124.652907 173.578072 C 124.295844 174.452428 123.864795 175.291327 123.348501 176.080242 C 122.820948 176.85463 122.232276 177.595162 121.574443 178.26146 C 120.903743 178.926156 120.17514 179.531146 119.404719 180.052178 C 118.619822 180.584535 117.794715 181.02001 116.913314 181.382852 C 116.04478 181.747295 115.148904 182.016456 114.224076 182.203262 C 113.299248 182.390068 112.372812 182.484796 111.419032 182.484241 C 110.47812 182.485288 109.548467 182.395858 108.618813 182.201422 C 107.700418 182.021514 106.806149 181.752728 105.924747 181.38054 C 105.054604 181.022878 104.234321 180.579542 103.451031 180.04893 C 102.666132 179.531243 101.943961 178.929484 101.282909 178.256576 C 100.621857 177.583668 100.018707 176.865464 99.50241 176.079313 C 98.986114 175.293163 98.542195 174.450391 98.193171 173.580052 C 97.831281 172.70811 97.564285 171.808601 97.392185 170.881524 C 97.220085 169.954446 97.126797 169.02405 97.139662 168.080612 C 97.126794 167.133972 97.216862 166.200141 97.397001 165.277518 C 97.564273 164.353293 97.832874 163.454804 98.189937 162.580447 C 98.546999 161.706091 98.990916 160.868793 99.50721 160.079878 C 100.021895 159.303889 100.621826 158.577884 101.281268 157.89866 C 101.939101 157.232362 102.667704 156.627373 103.450992 156.107941 C 104.235889 155.575585 105.060996 155.14011 105.929529 154.775667 C 106.798063 154.411224 107.69394 154.142062 108.618768 153.955256 C 109.543595 153.76845 110.482899 153.675324 111.423811 153.674277 C 112.364723 153.67323 113.307244 153.764262 114.22403 153.957096 C 115.155292 154.138606 116.049561 154.407391 116.918096 154.777979 C 117.78824 155.135641 118.62139 155.580578 119.391813 156.109589 C 120.176711 156.627275 120.898882 157.229035 121.572802 157.903544 C 122.233854 158.576452 122.824137 159.293055 123.340433 160.079205 C 123.867989 160.879882 124.300649 161.708127 124.662539 162.580068 C 125.011563 163.450408 125.278558 164.349918 125.450658 165.276995 C 125.635625 166.205674 125.716047 167.134469 125.716048 168.079508 Z M 125.716048 168.079508 " stroke="#ffffff" stroke-width="4" stroke-opacity="1" stroke-miterlimit="4"/><g clip-path="url(#f1d965df34)"><path stroke-linecap="butt" transform="matrix(0.434279, 0, 0, 0.434964, 29.49501, -24.154613)" fill="none" stroke-linejoin="miter" d="M 137.847645 439.067992 L 612.052945 439.067992 " stroke="#cccccc" stroke-width="0.692" stroke-opacity="1" stroke-miterlimit="4"/></g><path stroke-linecap="butt" transform="matrix(0.30126, 0, 0, 0.299903, 67.19783, 60.406777)" fill="none" stroke-linejoin="miter" d="M 104.124764 618.348291 L 726.706236 618.348291 " stroke="#ffffff" stroke-width="4" stroke-opacity="1" stroke-miterlimit="4"/><path stroke-linecap="butt" transform="matrix(0.30126, 0, 0, 0.299903, 60.936828, 60.406777)" fill="none" stroke-linejoin="miter" d="M 307.954119 713.144424 L 307.954119 619.312143 " stroke="#ffffff" stroke-width="4" stroke-opacity="1" stroke-miterlimit="4"/><path stroke-linecap="butt" transform="matrix(0.30126, 0, 0, 0.299903, 60.936828, 60.406777)" fill="none" stroke-linejoin="miter" d="M 564.429419 713.144424 L 564.429419 619.312143 " stroke="#ffffff" stroke-width="4" stroke-opacity="1" stroke-miterlimit="4"/><path stroke-linecap="butt" transform="matrix(0.30126, 0, 0, 0.299903, 67.19783, 60.406777)" fill="none" stroke-linejoin="miter" d="M 104.124764 524.489959 L 726.706236 524.489959 " stroke="#ffffff" stroke-width="4" stroke-opacity="1" stroke-miterlimit="4"/><path stroke-linecap="butt" transform="matrix(0.30126, 0, 0, 0.299903, 67.19783, 60.406777)" fill="none" stroke-linejoin="miter" d="M 104.124764 430.631627 L 726.706236 430.631627 " stroke="#ffffff" stroke-width="4" stroke-opacity="1" stroke-miterlimit="4"/><g fill="#000000" fill-opacity="1"><g transform="translate(320.900232, 178.372343)"><g><path d="M 61.691406 0 L 45.019531 -23.445312 C 43.144531 -23.238281 41.199219 -23.132812 39.183594 -23.132812 L 19.589844 -23.132812 L 19.589844 0 L 11.878906 0 L 11.878906 -72.945312 L 39.183594 -72.945312 C 48.492188 -72.945312 55.785156 -70.722656 61.066406 -66.277344 C 66.347656 -61.832031 68.988281 -55.71875 68.988281 -47.9375 C 68.988281 -42.238281 67.546875 -37.429688 64.664062 -33.503906 C 61.777344 -29.578125 57.664062 -26.746094 52.3125 -25.011719 L 70.132812 0 Z M 38.972656 -29.699219 C 46.199219 -29.699219 51.722656 -31.296875 55.542969 -34.492188 C 59.363281 -37.6875 61.273438 -42.171875 61.273438 -47.9375 C 61.273438 -53.839844 59.363281 -58.375 55.542969 -61.535156 C 51.722656 -64.695312 46.199219 -66.277344 38.972656 -66.277344 L 19.589844 -66.277344 L 19.589844 -29.699219 Z M 38.972656 -29.699219 "/></g></g></g><g fill="#000000" fill-opacity="1"><g transform="translate(386.031088, 178.372343)"><g><path d="M 58.042969 -25.113281 L 12.191406 -25.113281 C 12.609375 -19.417969 14.796875 -14.816406 18.757812 -11.308594 C 22.71875 -7.796875 27.71875 -6.042969 33.765625 -6.042969 C 37.167969 -6.042969 40.292969 -6.652344 43.144531 -7.867188 C 45.992188 -9.082031 48.457031 -10.871094 50.542969 -13.234375 L 54.710938 -8.441406 C 52.277344 -5.523438 49.238281 -3.300781 45.589844 -1.773438 C 41.945312 -0.242188 37.933594 0.519531 33.554688 0.519531 C 27.929688 0.519531 22.945312 -0.675781 18.601562 -3.074219 C 14.257812 -5.472656 10.871094 -8.789062 8.441406 -13.027344 C 6.007812 -17.265625 4.792969 -22.058594 4.792969 -27.40625 C 4.792969 -32.757812 5.957031 -37.550781 8.285156 -41.789062 C 10.613281 -46.027344 13.808594 -49.324219 17.871094 -51.6875 C 21.9375 -54.050781 26.503906 -55.230469 31.574219 -55.230469 C 36.648438 -55.230469 41.199219 -54.050781 45.226562 -51.6875 C 49.257812 -49.324219 52.417969 -46.042969 54.710938 -41.839844 C 57.003906 -37.636719 58.148438 -32.824219 58.148438 -27.40625 Z M 31.574219 -48.875 C 26.296875 -48.875 21.867188 -47.191406 18.289062 -43.820312 C 14.710938 -40.449219 12.679688 -36.054688 12.191406 -30.636719 L 51.0625 -30.636719 C 50.578125 -36.054688 48.542969 -40.449219 44.964844 -43.820312 C 41.386719 -47.191406 36.925781 -48.875 31.574219 -48.875 Z M 31.574219 -48.875 "/></g></g></g><g fill="#000000" fill-opacity="1"><g transform="translate(438.761046, 178.372343)"><g><path d="M 56.378906 -54.8125 L 28.96875 6.566406 C 26.746094 11.707031 24.175781 15.355469 21.257812 17.507812 C 18.339844 19.660156 14.832031 20.738281 10.734375 20.738281 C 8.09375 20.738281 5.628906 20.320312 3.335938 19.488281 C 1.042969 18.652344 -0.9375 17.402344 -2.605469 15.734375 L 0.832031 10.210938 C 3.613281 12.992188 6.949219 14.382812 10.835938 14.382812 C 13.339844 14.382812 15.476562 13.6875 17.246094 12.296875 C 19.019531 10.90625 20.667969 8.546875 22.195312 5.210938 L 24.59375 -0.105469 L 0.105469 -54.8125 L 7.816406 -54.8125 L 28.449219 -8.234375 L 49.082031 -54.8125 Z M 56.378906 -54.8125 "/></g></g></g><g fill="#000000" fill-opacity="1"><g transform="translate(485.030041, 178.372343)"><g><path d="M 38.246094 -55.230469 C 45.121094 -55.230469 50.59375 -53.234375 54.65625 -49.238281 C 58.722656 -45.246094 60.753906 -39.425781 60.753906 -31.785156 L 60.753906 0 L 53.355469 0 L 53.355469 -31.054688 C 53.355469 -36.75 51.929688 -41.09375 49.082031 -44.082031 C 46.234375 -47.066406 42.171875 -48.5625 36.890625 -48.5625 C 30.984375 -48.5625 26.3125 -46.808594 22.875 -43.300781 C 19.433594 -39.789062 17.714844 -34.945312 17.714844 -28.761719 L 17.714844 0 L 10.316406 0 L 10.316406 -54.8125 L 17.402344 -54.8125 L 17.402344 -44.707031 C 19.417969 -48.039062 22.214844 -50.628906 25.792969 -52.46875 C 29.371094 -54.3125 33.519531 -55.230469 38.246094 -55.230469 Z M 38.246094 -55.230469 "/></g></g></g><path stroke-linecap="butt" transform="matrix(0, 0.75, -0.75, 0, 315.304764, 57.814448)" fill="none" stroke-linejoin="miter" d="M -0.0025976 6.500103 L 345.830758 6.500103 " stroke="#000000" stroke-width="13" stroke-opacity="1" stroke-miterlimit="4"/></svg>